<svg viewBox="0 0 160 120" fill="none" xmlns="http://www.w3.org/2000/svg">
  <!-- Body -->
  <rect width="160" height="120" rx="8" fill="#1f2833"/>
  <!-- Oscilloscope screen -->
  <rect x="8" y="8" width="144" height="48" rx="4" fill="#0b0c10" stroke="#45a29e" stroke-width="1.5"/>
  <!-- Screen scanline overlay -->
  <rect x="8" y="8" width="144" height="48" rx="4" fill="url(#scan)" opacity="0.15"/>
  <!-- Waveform -->
  <polyline points="14,32 26,14 38,32 50,32 62,14 74,32 86,32 98,14 110,32 122,32 134,14 146,32" stroke="#66fcf1" stroke-width="1.8" fill="none" stroke-linecap="round" stroke-linejoin="round"/>
  <!-- Second wave (sine, dimmer) -->
  <path d="M14 32 Q20 20 26 32 Q32 44 38 32 Q44 20 50 32 Q56 44 62 32 Q68 20 74 32 Q80 44 86 32 Q92 20 98 32 Q104 44 110 32 Q116 20 122 32 Q128 44 134 32 Q140 20 146 32" stroke="#ff007f" stroke-width="1" fill="none" opacity="0.4"/>
  <!-- Label OSC1 -->
  <text x="12" y="22" font-family="monospace" font-size="6" fill="#45a29e" opacity="0.8">OSC1</text>
  <!-- Knobs row -->
  <circle cx="18" cy="76" r="9" fill="#111" stroke="#444" stroke-width="1"/>
  <circle cx="18" cy="76" r="3.5" fill="#0b0c10"/>
  <line x1="18" y1="67" x2="18" y2="71" stroke="#66fcf1" stroke-width="1.5" stroke-linecap="round"/>
  <circle cx="40" cy="76" r="9" fill="#111" stroke="#444" stroke-width="1"/>
  <circle cx="40" cy="76" r="3.5" fill="#0b0c10"/>
  <line x1="46" y1="70" x2="43" y2="73" stroke="#ff007f" stroke-width="1.5" stroke-linecap="round"/>
  <circle cx="62" cy="76" r="9" fill="#111" stroke="#444" stroke-width="1"/>
  <circle cx="62" cy="76" r="3.5" fill="#0b0c10"/>
  <line x1="62" y1="67" x2="62" y2="71" stroke="#66fcf1" stroke-width="1.5" stroke-linecap="round"/>
  <circle cx="84" cy="76" r="9" fill="#111" stroke="#444" stroke-width="1"/>
  <circle cx="84" cy="76" r="3.5" fill="#0b0c10"/>
  <line x1="90" y1="70" x2="87" y2="73" stroke="#ff007f" stroke-width="1.5" stroke-linecap="round"/>
  <circle cx="106" cy="76" r="9" fill="#111" stroke="#444" stroke-width="1"/>
  <circle cx="106" cy="76" r="3.5" fill="#0b0c10"/>
  <line x1="106" y1="67" x2="106" y2="71" stroke="#66fcf1" stroke-width="1.5" stroke-linecap="round"/>
  <circle cx="128" cy="76" r="9" fill="#111" stroke="#444" stroke-width="1"/>
  <circle cx="128" cy="76" r="3.5" fill="#0b0c10"/>
  <line x1="134" y1="70" x2="131" y2="73" stroke="#ff007f" stroke-width="1.5" stroke-linecap="round"/>
  <!-- Labels -->
  <text x="13" y="90" font-family="monospace" font-size="5" fill="#888">TUNE</text>
  <text x="35" y="90" font-family="monospace" font-size="5" fill="#888">CUTOFF</text>
  <text x="57" y="90" font-family="monospace" font-size="5" fill="#888">RES</text>
  <text x="79" y="90" font-family="monospace" font-size="5" fill="#888">DRIVE</text>
  <text x="101" y="90" font-family="monospace" font-size="5" fill="#888">ATK</text>
  <text x="123" y="90" font-family="monospace" font-size="5" fill="#888">REL</text>
  <!-- Piano keys -->
  <rect x="8" y="97" width="10" height="18" rx="1" fill="#ddd"/>
  <rect x="20" y="97" width="10" height="18" rx="1" fill="#ddd"/>
  <rect x="32" y="97" width="10" height="18" rx="1" fill="#ddd"/>
  <rect x="44" y="97" width="10" height="18" rx="1" fill="#ddd"/>
  <rect x="56" y="97" width="10" height="18" rx="1" fill="#ddd"/>
  <rect x="68" y="97" width="10" height="18" rx="1" fill="#ddd"/>
  <rect x="80" y="97" width="10" height="18" rx="1" fill="#ddd"/>
  <rect x="92" y="97" width="10" height="18" rx="1" fill="#ddd"/>
  <rect x="104" y="97" width="10" height="18" rx="1" fill="#ddd"/>
  <rect x="116" y="97" width="10" height="18" rx="1" fill="#ddd"/>
  <rect x="128" y="97" width="10" height="18" rx="1" fill="#ddd"/>
  <rect x="140" y="97" width="10" height="18" rx="1" fill="#ddd"/>
  <!-- Black keys -->
  <rect x="15" y="97" width="7" height="11" rx="1" fill="#111"/>
  <rect x="27" y="97" width="7" height="11" rx="1" fill="#111"/>
  <rect x="51" y="97" width="7" height="11" rx="1" fill="#111"/>
  <rect x="63" y="97" width="7" height="11" rx="1" fill="#111"/>
  <rect x="75" y="97" width="7" height="11" rx="1" fill="#111"/>
  <rect x="99" y="97" width="7" height="11" rx="1" fill="#66fcf1" opacity="0.8"/>
  <rect x="111" y="97" width="7" height="11" rx="1" fill="#111"/>
  <rect x="135" y="97" width="7" height="11" rx="1" fill="#111"/>
</svg>
