<svg viewBox="0 0 100 50" fill="none" xmlns="http://www.w3.org/2000/svg">
  <rect x="5" y="5" width="90" height="40" rx="4" fill="#E0E0E0" />
  <rect x="5" y="5" width="90" height="10" fill="#333333" />
  <rect x="10" y="15" width="10" height="30" stroke="#333" stroke-width="1" />
  <rect x="20" y="15" width="10" height="30" stroke="#333" stroke-width="1" />
  <rect x="30" y="15" width="10" height="30" stroke="#333" stroke-width="1" />
  <rect x="40" y="15" width="10" height="30" stroke="#333" stroke-width="1" />
  <rect x="50" y="15" width="10" height="30" stroke="#333" stroke-width="1" />
  <rect x="60" y="15" width="10" height="30" stroke="#333" stroke-width="1" />
  <rect x="70" y="15" width="10" height="30" stroke="#333" stroke-width="1" />
  <rect x="80" y="15" width="10" height="30" stroke="#333" stroke-width="1" />
  <rect x="17" y="15" width="6" height="18" fill="#1A1A1A" />
  <rect x="27" y="15" width="6" height="18" fill="#1A1A1A" />
  <rect x="47" y="15" width="6" height="18" fill="#1A1A1A" />
  <rect x="57" y="15" width="6" height="18" fill="#1A1A1A" />
  <rect x="67" y="15" width="6" height="18" fill="#1A1A1A" />
</svg>
